# xmcd
#
# Track frame offsets: 
#        150
#        18717
#        34634
#        54540
#        67020
#        87135
#        104880
#        122430
#        136817
#        149342
#        162668
#        180338
#        198326
#        209004
#        223896
#
# Disc length: 3116 seconds
#
# Revision: 0
# Processed by: cddbd v1.5.1PL2 Copyright (c) Steve Scherf et al.
# Submitted via: ExactAudioCopy v0.95b4
#
DISCID=e70c2a0f
DTITLE=The Flying W Wranglers - The Glory Trail
DYEAR=2003
DGENRE=Country
TTITLE0=Comin' Home to Jesus
TTITLE1=Don't Ever Sell Your Saddle
TTITLE2='Til the Storm Passes By
TTITLE3=The Glory Trail
TTITLE4=Just a Closer Walk - In the Garden - Old Rugged Cross
TTITLE5=The Trail of Life
TTITLE6=Heal Our Land
TTITLE7=Suppertime
TTITLE8=I'm Ready to Go
TTITLE9=The Carpenter
TTITLE10=Crucified With Christ
TTITLE11=What a Friend We Have in Jesus
TTITLE12=Lord, Build Me a Cabin
TTITLE13=Loud Enough to Wake the Dead
TTITLE14=Psalm 5
EXTD=
EXTT0=
EXTT1=
EXTT2=
EXTT3=
EXTT4=
EXTT5=
EXTT6=
EXTT7=
EXTT8=
EXTT9=
EXTT10=
EXTT11=
EXTT12=
EXTT13=
EXTT14=
PLAYORDER=
